<svg width="47" height="34" viewBox="0 0 47 34" fill="none" xmlns="http://www.w3.org/2000/svg">
<path d="M33.5553 27.6607C34.1302 27.6615 34.6854 27.4509 35.1149 27.0688L47 16.5038L34.4549 5.35156C33.9873 4.95154 33.3814 4.751 32.7675 4.79307C32.1536 4.83513 31.5807 5.11645 31.172 5.57651C30.7633 6.03657 30.5515 6.63864 30.5821 7.25324C30.6127 7.86784 30.8833 8.44588 31.3357 8.86306L39.93 16.5038L31.9957 23.555C31.6392 23.8712 31.3874 24.2885 31.2737 24.7513C31.1599 25.214 31.1896 25.7005 31.3589 26.146C31.5281 26.5915 31.8288 26.9749 32.2211 27.2455C32.6134 27.516 33.0788 27.6608 33.5553 27.6607ZM12.5451 27.656L1.14441e-05 16.5038L11.8851 5.93877C12.3507 5.52513 12.9616 5.31342 13.5834 5.3502C14.2051 5.38698 14.7868 5.66924 15.2004 6.1349C15.6141 6.60055 15.8258 7.21145 15.789 7.8332C15.7522 8.45495 15.47 9.03663 15.0043 9.45026L7.06997 16.5038L15.6643 24.1422C16.1303 24.5558 16.4129 25.1376 16.4499 25.7596C16.4869 26.3815 16.2753 26.9927 15.8616 27.4587C15.448 27.9247 14.8662 28.2072 14.2442 28.2442C13.6222 28.2812 13.011 28.0696 12.5451 27.656ZM23.5329 30.9843L18.8352 2.79839C18.7752 2.49035 18.7774 2.17339 18.8419 1.86625C18.9064 1.5591 19.0318 1.26799 19.2107 1.01011C19.3895 0.752229 19.6183 0.532814 19.8834 0.364822C20.1485 0.19683 20.4445 0.0836684 20.7541 0.0320219C21.0637 -0.0196245 21.3805 -0.00870881 21.6857 0.0641247C21.991 0.136958 22.2786 0.270233 22.5315 0.456075C22.7844 0.641917 22.9975 0.876557 23.1582 1.14614C23.3189 1.41572 23.4239 1.71477 23.4671 2.02563L28.1648 30.2115C28.2248 30.5196 28.2226 30.8365 28.1581 31.1437C28.0936 31.4508 27.9682 31.7419 27.7893 31.9998C27.6105 32.2577 27.3817 32.4771 27.1166 32.6451C26.8515 32.8131 26.5555 32.9263 26.2459 32.9779C25.9363 33.0295 25.6196 33.0186 25.3143 32.9458C25.009 32.873 24.7214 32.7397 24.4685 32.5538C24.2156 32.368 24.0025 32.1334 23.8418 31.8638C23.6811 31.5942 23.5761 31.2952 23.5329 30.9843Z" fill="#16829F"/>
</svg>
