<svg width="50" height="50" viewBox="0 0 50 50" fill="none" xmlns="http://www.w3.org/2000/svg">
<path d="M23.2005 39.6015V32.1367H26.7702V39.6015C27.961 40.0223 28.9647 40.8505 29.6038 41.9395C30.2429 43.0286 30.4763 44.3084 30.2627 45.5528C30.0491 46.7972 29.4023 47.9261 28.4366 48.7399C27.4709 49.5537 26.2485 50.0001 24.9854 50.0001C23.7223 50.0001 22.4998 49.5537 21.5341 48.7399C20.5684 47.9261 19.9216 46.7972 19.708 45.5528C19.4944 44.3084 19.7278 43.0286 20.3669 41.9395C21.006 40.8505 22.0097 40.0223 23.2005 39.6015Z" fill="#16829F"/>
<path d="M7.13741 17.8638C8.71589 17.8685 10.2482 18.3965 11.4943 19.3651C12.7404 20.3336 13.6298 21.6881 14.0233 23.2161L35.9481 23.2161C36.3825 21.5343 37.4156 20.0686 38.8538 19.0938C40.292 18.1189 42.0365 17.7018 43.7603 17.9207C45.4841 18.1395 47.0689 18.9793 48.2176 20.2826C49.3663 21.5859 50 23.2633 50 25.0003C50 26.7372 49.3663 28.4146 48.2176 29.7179C47.0689 31.0212 45.4841 31.861 43.7603 32.0799C42.0365 32.2987 40.292 31.8816 38.8538 30.9068C37.4156 29.9319 36.3825 28.4662 35.9481 26.7844L14.0233 26.7844C13.6872 28.0735 12.9962 29.2426 12.0288 30.1589C11.0614 31.0752 9.85636 31.702 8.55051 31.9682C7.24465 32.2343 5.89031 32.1291 4.64127 31.6645C3.39223 31.1998 2.29854 30.3944 1.4844 29.3397C0.670258 28.285 0.168282 27.0232 0.0354767 25.6977C-0.097332 24.3721 0.144352 23.0359 0.733082 21.8407C1.32181 20.6456 2.234 19.6394 3.36606 18.9364C4.49812 18.2334 5.80469 17.8618 7.13741 17.8638ZM42.8339 28.5685C43.54 28.5685 44.2301 28.3592 44.8171 27.9671C45.4042 27.5751 45.8617 27.0178 46.1319 26.3658C46.4021 25.7138 46.4727 24.9963 46.335 24.3041C46.1973 23.612 45.8573 22.9762 45.3581 22.4771C44.8589 21.9781 44.2228 21.6383 43.5304 21.5006C42.8379 21.3629 42.1202 21.4336 41.4679 21.7036C40.8156 21.9737 40.2581 22.4311 39.8659 23.0179C39.4737 23.6047 39.2643 24.2945 39.2643 25.0003C39.2652 25.9463 39.6416 26.8534 40.3109 27.5223C40.9801 28.1913 41.8875 28.5676 42.8339 28.5685ZM7.13741 28.5685C7.84342 28.5685 8.53358 28.3592 9.1206 27.9671C9.70763 27.5751 10.1652 27.0178 10.4353 26.3658C10.7055 25.7138 10.7762 24.9963 10.6385 24.3041C10.5007 23.612 10.1608 22.9762 9.66153 22.4771C9.16231 21.9781 8.52626 21.6383 7.83381 21.5006C7.14137 21.3629 6.42363 21.4336 5.77136 21.7036C5.11909 21.9737 4.56159 22.4311 4.16935 23.0179C3.77711 23.6047 3.56775 24.2945 3.56775 25.0003C3.5687 25.9463 3.94509 26.8534 4.61432 27.5223C5.28356 28.1913 6.19097 28.5676 7.13741 28.5685Z" fill="#16829F"/>
<path d="M19.6309 5.37452C19.6269 4.39233 19.8932 3.42796 20.4009 2.58701C20.9086 1.74606 21.6379 1.06096 22.5091 0.606738C23.3803 0.152513 24.3598 -0.0533235 25.3402 0.0117683C26.3206 0.0768601 27.2642 0.41037 28.0677 0.975778C28.8711 1.54119 29.5035 2.31669 29.8954 3.21736C30.2874 4.11803 30.4238 5.10915 30.2898 6.08217C30.1559 7.0552 29.7566 7.97261 29.1358 8.73395C28.515 9.49528 27.6966 10.0712 26.7702 10.3986L26.7702 17.8634H23.2006V10.3986C22.159 10.0327 21.2565 9.35315 20.6173 8.45343C19.978 7.55371 19.6334 6.47806 19.6309 5.37452Z" fill="#16829F"/>
</svg>
