<svg width="44" height="36" viewBox="0 0 44 36" fill="none" xmlns="http://www.w3.org/2000/svg">
<path d="M0 0L2.01143 0.589286L38.0097 11.5406H44V24.112H38.0081L34.9156 25.0454L34.9627 25.1916V25.2419C35.9716 28.5607 34.1031 32.2504 30.6413 33.2939C30.6256 33.2986 30.6067 33.2891 30.5941 33.2939C27.258 34.3074 23.5651 32.461 22.539 28.9724L22.4919 28.8247L2.01143 35.0633L0 35.651L0 0ZM3.14286 4.224L3.14286 31.4286L37.2743 21.0163L37.4676 20.9691H40.8571V14.6834H37.4691L37.2727 14.6363L3.14286 4.22243V4.224ZM31.9204 25.9773L25.487 27.8944L25.5341 28.0406V28.0877C26.0747 29.9263 28.0264 30.8251 29.7079 30.2987C31.5464 29.7597 32.4924 27.8567 31.9676 26.1737V26.1266L31.9204 25.9773Z" fill="#16829F"/>
</svg>
