<svg width="48" height="47" viewBox="0 0 48 47" fill="none" xmlns="http://www.w3.org/2000/svg">
<path fill-rule="evenodd" clip-rule="evenodd" d="M23.56 35.5879C27.811 35.5879 32.1298 33.0644 34.6504 29.7244C46.7431 29.7244 47.1086 46.9996 47.1086 46.9996L0.0143089 46.9996C0.0143089 46.9996 -0.934948 29.6477 12.6642 29.6477C15.1818 33.0291 19.309 35.5879 23.56 35.5879Z" fill="#16829F"/>
<path fill-rule="evenodd" clip-rule="evenodd" d="M13.4305 14.8782C13.4305 19.8485 17.9674 29.3529 23.5686 29.3529C29.161 29.3529 33.7009 19.8456 33.7009 14.8782C33.7009 9.9108 29.164 5.87793 23.5686 5.87793C17.9674 5.88088 13.4305 9.91374 13.4305 14.8782Z" fill="#16829F"/>
<path fill-rule="evenodd" clip-rule="evenodd" d="M8.90826 10.5892C8.90826 9.65766 10.2054 8.90591 11.815 8.90002V6.98087C11.815 6.69491 11.7059 0 23.5333 0C35.3548 0 35.2457 6.69491 35.2457 6.98087V8.96782C35.2752 8.96782 35.2988 8.95898 35.3253 8.95898C36.9261 8.95898 38.2144 9.69893 38.2144 10.6158V18.7346C38.2144 19.6455 36.9231 20.3884 35.3253 20.3884C33.7275 20.3884 32.4304 19.6455 32.4304 18.7346V10.6158C32.4304 10.489 32.51 10.374 32.5571 10.2561V8.04215C32.5571 7.83874 33.4062 2.78586 23.5333 2.78586C13.6575 2.78586 14.6834 7.83874 14.6834 8.04215V10.374C14.7011 10.4477 14.7571 10.5126 14.7571 10.5892L14.7571 18.8937C14.7571 19.8283 13.4511 20.5859 11.8327 20.5859C11.7973 20.5859 11.7708 20.5741 11.7354 20.5741V23.6076H14.6362V26.4672H8.87878L8.90826 10.5892Z" fill="#16829F"/>
</svg>
