<svg width="22" height="22" viewBox="0 0 22 22" fill="none" xmlns="http://www.w3.org/2000/svg">
<path fill-rule="evenodd" clip-rule="evenodd" d="M20.2857 1.88504C20.5672 2.16641 20.7904 2.50048 20.9428 2.86816C21.0951 3.23583 21.1735 3.62992 21.1735 4.0279C21.1735 4.42588 21.0951 4.81996 20.9428 5.18764C20.7904 5.55532 20.5672 5.88938 20.2857 6.17076L6.71429 19.7422L1 21.1708L2.42857 15.5365L16.0057 1.89076C16.2861 1.60893 16.6194 1.38518 16.9864 1.23233C17.3534 1.07948 17.747 1.00053 18.1445 1C18.5421 0.999472 18.9359 1.07737 19.3033 1.22924C19.6707 1.38111 20.0045 1.60396 20.2857 1.88504V1.88504Z" stroke="black" stroke-linecap="round" stroke-linejoin="round"/>
</svg>
