<svg width="21" height="21" viewBox="0 0 21 21" fill="none" xmlns="http://www.w3.org/2000/svg">
<path d="M10.3012 7.03835C8.45341 7.03835 6.9455 8.54626 6.9455 10.394C6.9455 12.2418 8.45341 13.7497 10.3012 13.7497C12.1489 13.7497 13.6568 12.2418 13.6568 10.394C13.6568 8.54626 12.1489 7.03835 10.3012 7.03835ZM20.3657 10.394C20.3657 9.00443 20.3782 7.62742 20.3002 6.24034C20.2222 4.62922 19.8546 3.19934 18.6765 2.02121C17.4958 0.840558 16.0685 0.475538 14.4574 0.397499C13.0678 0.319461 11.6908 0.332048 10.3037 0.332048C8.91409 0.332048 7.53709 0.319461 6.15001 0.397499C4.53889 0.475538 3.10901 0.843076 1.93088 2.02121C0.750227 3.20186 0.385206 4.62922 0.307167 6.24034C0.229129 7.62994 0.241716 9.00694 0.241716 10.394C0.241716 11.7811 0.229129 13.1606 0.307167 14.5477C0.385206 16.1588 0.752744 17.5887 1.93088 18.7668C3.11153 19.9475 4.53889 20.3125 6.15001 20.3905C7.5396 20.4686 8.91661 20.456 10.3037 20.456C11.6933 20.456 13.0703 20.4686 14.4574 20.3905C16.0685 20.3125 17.4984 19.945 18.6765 18.7668C19.8571 17.5862 20.2222 16.1588 20.3002 14.5477C20.3808 13.1606 20.3657 11.7836 20.3657 10.394ZM10.3012 15.5572C7.44394 15.5572 5.13802 13.2512 5.13802 10.394C5.13802 7.53679 7.44394 5.23087 10.3012 5.23087C13.1584 5.23087 15.4643 7.53679 15.4643 10.394C15.4643 13.2512 13.1584 15.5572 10.3012 15.5572ZM15.6758 6.22524C15.0087 6.22524 14.47 5.68652 14.47 5.01941C14.47 4.3523 15.0087 3.81359 15.6758 3.81359C16.3429 3.81359 16.8816 4.3523 16.8816 5.01941C16.8818 5.17782 16.8507 5.33471 16.7902 5.4811C16.7297 5.62748 16.6409 5.76049 16.5289 5.8725C16.4169 5.98451 16.2839 6.07333 16.1375 6.13385C15.9911 6.19438 15.8342 6.22544 15.6758 6.22524Z" fill="#16829F"/>
</svg>
