<svg width="21" height="21" viewBox="0 0 21 21" fill="none" xmlns="http://www.w3.org/2000/svg">
<path d="M20.0893 0.324707L1.56142 0.324707C1.11584 0.324707 0.755859 0.684692 0.755859 1.13027L0.755859 19.6582C0.755859 20.1038 1.11584 20.4638 1.56142 20.4638L20.0893 20.4638C20.5349 20.4638 20.8949 20.1038 20.8949 19.6582L20.8949 1.13027C20.8949 0.684692 20.5349 0.324707 20.0893 0.324707ZM6.7296 17.4857H3.74147L3.74147 7.87433L6.7296 7.87433L6.7296 17.4857ZM5.2368 6.56026C4.89425 6.56026 4.55939 6.45868 4.27457 6.26837C3.98975 6.07806 3.76776 5.80757 3.63668 5.49109C3.50559 5.17462 3.47129 4.82638 3.53812 4.49041C3.60495 4.15445 3.7699 3.84584 4.01212 3.60362C4.25434 3.3614 4.56294 3.19645 4.89891 3.12962C5.23488 3.06279 5.58312 3.09709 5.89959 3.22818C6.21606 3.35927 6.48656 3.58126 6.67687 3.86608C6.86718 4.1509 6.96876 4.48575 6.96876 4.8283C6.96624 5.78491 6.19089 6.56026 5.2368 6.56026ZM17.9168 17.4857L14.9312 17.4857V12.8109C14.9312 11.6957 14.9111 10.2633 13.378 10.2633C11.8248 10.2633 11.5856 11.4767 11.5856 12.7304V17.4857H8.60254L8.60254 7.87433H11.4673V9.18841H11.5076C11.9053 8.43319 12.8796 7.63518 14.3346 7.63518C17.3605 7.63518 17.9168 9.62643 17.9168 12.2143L17.9168 17.4857Z" fill="#16829F"/>
</svg>
