<svg width="28" height="23" viewBox="0 0 28 23" fill="none" xmlns="http://www.w3.org/2000/svg">
<path d="M24.9514 5.59757C24.9633 5.83614 24.9678 6.07765 24.9678 6.31621C24.9678 13.6646 19.3158 22.1351 8.98087 22.1351C5.80582 22.1351 2.85405 21.2148 0.366699 19.6361C1.83793 19.8121 3.32981 19.6996 4.75705 19.3049C6.18429 18.9102 7.51892 18.2411 8.68465 17.3359C7.5123 17.3139 6.37619 16.9301 5.43514 16.2381C4.49409 15.5461 3.79516 14.5804 3.43607 13.4761C4.27867 13.632 5.14586 13.5993 5.97402 13.3804C4.70223 13.1253 3.55872 12.443 2.73727 11.4491C1.91581 10.4553 1.46694 9.21106 1.46673 7.92726V7.85805C2.24702 8.28747 3.1197 8.52628 4.01213 8.5546C2.82111 7.76908 1.97801 6.56349 1.6549 5.18392C1.3318 3.80434 1.55306 2.35478 2.27352 1.1311C3.68434 2.84886 5.44463 4.2538 7.44005 5.25467C9.43547 6.25555 11.6214 6.82996 13.8558 6.94061C13.7592 6.52476 13.7107 6.09937 13.7114 5.67268C13.7114 4.9429 13.8568 4.22027 14.1391 3.54606C14.4214 2.87186 14.8353 2.25928 15.3569 1.74332C15.8786 1.22736 16.4979 0.818121 17.1795 0.538981C17.8611 0.259842 18.5915 0.116269 19.3292 0.116462C20.098 0.115222 20.8588 0.270263 21.5645 0.571968C22.2702 0.873673 22.9057 1.31561 23.4316 1.87036C24.6896 1.62399 25.8961 1.16785 26.9996 0.521434C26.5799 1.80881 25.7018 2.90152 24.5287 3.59627C25.6425 3.46564 26.7302 3.1708 27.7558 2.72154C27.0024 3.83843 26.0525 4.81254 24.9514 5.59757Z" fill="#16829F"/>
</svg>
