<svg width="31" height="30" viewBox="0 0 31 30" fill="none" xmlns="http://www.w3.org/2000/svg">
<g clip-path="url(#clip0)">
<path d="M25.2497 5.18444H4.73004C3.56585 5.12654 2.42158 5.50189 1.51782 6.23805L2.68064 6.98971L11.5078 12.7075C11.5941 12.7376 11.6729 12.7858 11.7391 12.8488L14.9513 14.9367L27.2926 6.99613L28.4619 6.23805C27.5445 5.52735 26.4098 5.15513 25.2497 5.18444Z" fill="#4F4F4F"/>
<path d="M1.79413 7.9341L0.708403 7.22741C0.24496 8.03657 0.00548908 8.95462 0.0145636 9.88712L0.00813916 20.0955C-0.00816284 21.1841 0.325105 22.2492 0.958956 23.1343L1.87123 22.1899L10.2808 13.4527L1.79413 7.9341Z" fill="#4F4F4F"/>
<path d="M27.2157 23.0572L18.639 14.1658L15.3626 16.2858L15.2534 16.3372H15.202C15.1486 16.344 15.0947 16.344 15.0413 16.3372C14.988 16.344 14.9341 16.344 14.8807 16.3372H14.8293L14.6752 16.2858L11.4244 14.1786L2.8028 23.0829L1.87769 24.0401C2.72619 24.5859 3.72206 24.8572 4.73013 24.8175H25.2883C26.2925 24.8239 27.2768 24.5382 28.1215 23.9952L27.2157 23.0572Z" fill="#4F4F4F"/>
<path d="M30.0038 20.0955V9.90638C30.0325 8.97002 29.7989 8.04434 29.3293 7.23382L28.2371 7.93408L19.7568 13.427L28.16 22.1706L29.0787 23.1279C29.7207 22.2506 30.0469 21.1818 30.0038 20.0955Z" fill="#4F4F4F"/>
</g>
<defs>
<clipPath id="clip0">
<rect width="30" height="30" fill="white" transform="translate(0.00756836)"/>
</clipPath>
</defs>
</svg>
