<svg width="31" height="30" viewBox="0 0 31 30" fill="none" xmlns="http://www.w3.org/2000/svg">
<path d="M15.0074 14.672C18.3429 14.672 21.0471 11.3876 21.0471 7.33603C21.0471 3.2844 20.1592 0 15.0074 0C9.85553 0 8.96753 3.2844 8.96753 7.33603C8.96753 11.3876 11.6717 14.672 15.0074 14.672Z" fill="#4F4F4F"/>
<path d="M3.59957 25.8731C3.59855 25.6261 3.59752 25.8035 3.59957 25.8731V25.8731Z" fill="#4F4F4F"/>
<path d="M26.4146 26.066C26.4178 25.9984 26.4157 25.5969 26.4146 26.066V26.066Z" fill="#4F4F4F"/>
<path d="M26.4017 25.5769C26.2898 18.519 25.3681 16.5079 18.3144 15.2349C18.3144 15.2349 17.3215 16.5001 15.0072 16.5001C12.6929 16.5001 11.6998 15.2349 11.6998 15.2349C4.72308 16.494 3.74525 18.4753 3.61668 25.3476C3.60614 25.9088 3.60125 25.9383 3.59937 25.8731C3.59979 25.9952 3.60031 26.2209 3.60031 26.6146C3.60031 26.6146 5.27962 30 15.0072 30C24.7345 30 26.414 26.6146 26.414 26.6146C26.414 26.3617 26.4142 26.1858 26.4145 26.0661C26.4126 26.1064 26.4088 26.0283 26.4017 25.5769Z" fill="#4F4F4F"/>
</svg>
