<svg width="38" height="31" viewBox="0 0 38 31" fill="none" xmlns="http://www.w3.org/2000/svg">
<path d="M36.8125 26.5625H1.18757C0.532047 26.5625 0.000102997 27.3886 0.000102997 28.4062C0.000102997 29.424 0.532146 30.2499 1.18757 30.2499H36.8125C37.4681 30.2499 38 29.4239 38 28.4062C38 27.3886 37.468 26.5625 36.8125 26.5625Z" fill="black"/>
<path d="M1.18757 17.3437H36.8125C37.4681 17.3437 38 16.5177 38 15.5C38 14.4824 37.468 13.6563 36.8125 13.6563H1.18757C0.532047 13.6563 0.000102997 14.4824 0.000102997 15.5C0.000102997 16.5177 0.532047 17.3437 1.18757 17.3437Z" fill="black"/>
<path d="M1.18756 4.4375H24.9375C25.5931 4.4375 26.125 3.61143 26.125 2.5938C26.125 1.576 25.593 0.750092 24.9375 0.750092H1.18756C0.532034 0.750092 9.15527e-05 1.57616 9.15527e-05 2.5938C-7.62939e-06 3.61159 0.532034 4.4375 1.18756 4.4375Z" fill="black"/>
</svg>
