<svg width="31" height="30" viewBox="0 0 31 30" fill="none" xmlns="http://www.w3.org/2000/svg">
<g clip-path="url(#clip0)">
<path d="M3.16488 8.50058C4.31919 10.246 5.33267 12.3202 5.49249 12.6769C5.53826 12.7797 5.61038 13.0223 5.69128 13.3191C6.25405 12.5239 6.94064 11.8666 7.76115 11.3842C8.93203 10.6961 10.2779 10.4126 11.7309 10.4808C11.38 9.92382 11.0608 9.3503 10.9074 8.90398C10.5132 7.75944 9.08451 3.03345 8.24885 1.01572C7.41365 -1.00201 4.23238 0.433955 2.38369 1.48497C0.535007 2.53599 0.431356 3.83112 0.619396 4.18785C0.806988 4.54449 2.01057 6.75519 3.16488 8.50058Z" fill="#4F4F4F"/>
<path d="M10.2534 15.0036C12.7122 13.9901 13.2379 15.2195 13.2379 15.2195C14.017 14.4969 13.4728 13.6427 13.4728 13.6427C13.4728 13.6427 13.6696 13.2767 13.3509 12.9011C13.156 12.6721 12.5279 11.8409 11.9783 10.9677C10.5253 10.8995 9.17947 11.183 8.00859 11.871C7.18808 12.3535 6.5015 13.0103 5.93872 13.806C6.13894 14.5393 6.39579 15.6137 6.46253 15.8009C6.55659 16.0635 6.80017 16.4202 7.02584 16.4669C7.25097 16.5137 7.38248 16.7296 7.38248 16.7296C7.67336 17.3207 8.58355 17.3581 8.58355 17.3581C8.58355 17.3581 7.79421 16.0171 10.2534 15.0036Z" fill="#4F4F4F"/>
<path d="M28.5994 20.2158C27.8461 19.6267 26.838 19.3436 26.0345 18.8222C23.9572 17.4745 26.6479 16.2329 27.5386 15.4298C29.0511 14.0664 29.4482 12.4956 28.822 10.5879C28.6262 9.99102 28.2017 9.3615 28.3976 9.95787C29.4682 13.2206 26.0661 14.7798 24.3383 16.6041C23.7019 17.276 23.7896 18.0045 24.4508 18.675C25.7299 19.9721 29.5778 21.0669 27.1926 23.0832C25.5209 24.4963 22.9262 24.6229 21.0731 25.8163C20.8227 25.9775 20.7934 26.4112 21.0454 26.5876C22.8653 27.8604 25.3849 27.5539 27.178 28.7096C24.0849 29.6403 20.8402 29.0332 17.6594 28.7418C17.672 28.6517 17.6608 28.5752 17.6608 28.5752C17.2564 26.0974 17.2155 25.56 17.4031 24.3209C17.5907 23.0823 17.4031 22.9693 17.4031 22.9693C15.4886 20.3415 13.1629 15.3787 13.1629 15.3787C12.853 14.8627 11.6237 14.6439 10.1034 15.3222C8.5266 16.0262 8.63921 16.9925 8.63921 16.9925L11.3142 24.8783C11.4083 25.1317 11.84 25.2535 11.84 25.2535C14.346 25.9761 16.3886 28.5084 16.661 28.9026C16.9333 29.2968 17.1302 29.1467 17.1302 29.1467L14.2077 22.6013C13.9845 22.5502 13.757 22.3562 13.6229 22.0688C13.429 21.6522 13.506 21.2058 13.7949 21.0713C14.0839 20.9368 14.4752 21.1654 14.6691 21.5819C14.8153 21.8958 14.807 22.2261 14.6711 22.4278L17.4573 28.7233C17.4369 28.7213 17.4163 28.7193 17.3959 28.7174C16.7742 28.6639 17.4266 29.4576 19.1735 29.6769C23.0667 30.1656 24.5894 30.1354 28.3413 29.3407C28.7262 29.2593 28.7331 28.7677 28.4802 28.5099C26.8186 26.8142 24.3857 27.1758 22.3938 26.2494C24.9279 25.1825 31.8802 22.7817 28.5994 20.2158Z" fill="#4F4F4F"/>
</g>
<defs>
<clipPath id="clip0">
<rect width="30" height="30" fill="white" transform="translate(0.00756836)"/>
</clipPath>
</defs>
</svg>
