<svg width="27" height="18" viewBox="0 0 27 18" fill="none" xmlns="http://www.w3.org/2000/svg">
<path d="M0.499649 15.75L0.499649 2.25C0.499649 1.005 1.50465 0 2.74965 0L23.7646 0C25.0096 0 26.0146 1.005 26.0146 2.25L26.0146 15.75C26.0146 16.995 25.0096 18 23.7646 18L2.74965 18C1.50465 18 0.499649 16.995 0.499649 15.75ZM2.46465 2.085C1.96965 2.58 2.23965 3.09 2.50965 3.345L8.59965 8.925L2.74965 15.015C2.56965 15.225 2.44965 15.555 2.65965 15.78C2.85465 16.02 3.30465 16.005 3.49965 15.855L10.0546 10.26L13.2646 13.185L16.4596 10.26L23.0146 15.855C23.2096 16.005 23.6596 16.02 23.8546 15.78C24.0646 15.555 23.9446 15.225 23.7646 15.015L17.9146 8.925L24.0046 3.345C24.2746 3.09 24.5446 2.58 24.0496 2.085C23.5546 1.59 23.0446 1.83 22.6246 2.19L13.2646 9.75L3.88965 2.19C3.46965 1.83 2.95965 1.59 2.46465 2.085Z" fill="black"/>
</svg>
