<svg width="30" height="28" viewBox="0 0 30 28" fill="none" xmlns="http://www.w3.org/2000/svg">
<path d="M15 0.608696C17.0455 0.608696 18.6435 1.3288 19.794 2.76902C20.9446 4.20924 21.5199 6.05027 21.5199 8.29212C21.5341 11.0774 20.5966 13.2853 18.7074 14.9158C18.4659 15.1332 18.3807 15.4117 18.4517 15.7514L18.9418 16.7296C19.098 17.0557 19.3288 17.3105 19.6342 17.4939C19.9396 17.6773 20.5824 17.9389 21.5625 18.2785C21.6051 18.2921 22.5036 18.5707 24.2578 19.1141C26.0121 19.6576 26.946 19.9565 27.0597 20.0109C28.2528 20.4864 29.0341 20.9823 29.4034 21.4986C29.8011 22.3546 30 24.5217 30 28L0 28C0 24.5217 0.198864 22.3546 0.59659 21.4986C0.965908 20.9823 1.74716 20.4864 2.94034 20.0109C3.05398 19.9565 3.98793 19.6576 5.74219 19.1141C7.49645 18.5707 8.39489 18.2921 8.4375 18.2785C9.41761 17.9389 10.0604 17.6773 10.3658 17.4939C10.6712 17.3105 10.902 17.0557 11.0582 16.7296L11.5483 15.7514C11.6193 15.4117 11.5341 15.1332 11.2926 14.9158C9.40341 13.2853 8.46591 11.0774 8.48011 8.29212C8.48011 6.05027 9.0554 4.20924 10.206 2.76902C11.3565 1.3288 12.9545 0.608696 15 0.608696Z" fill="black"/>
</svg>
