<svg width="26" height="26" viewBox="0 0 26 26" fill="none" xmlns="http://www.w3.org/2000/svg">
<path d="M12.6205 0C5.65019 0 0 5.65019 0 12.6205C0 18.9193 4.61531 24.1404 10.6492 25.0882L10.6492 16.2678H7.44355V12.6205H10.6492V9.84018C10.6492 6.67749 12.5321 4.93082 15.4159 4.93082C16.7966 4.93082 18.2404 5.17692 18.2404 5.17692V8.28155H16.6502C15.0815 8.28155 14.5931 9.25459 14.5931 10.2529V12.6205H18.0927L17.5336 16.2678H14.5931L14.5931 25.0882C20.6256 24.1417 25.2409 18.9181 25.2409 12.6205C25.2409 5.65019 19.5908 0 12.6205 0Z" fill="#16829F"/>
</svg>
